<svg width="453" height="323" viewBox="0 0 453 323" fill="none" xmlns="http://www.w3.org/2000/svg">
<path d="M202.999 23C190.82 23 180.911 32.9094 180.911 45.0896C180.911 48.2666 181.561 51.3 182.842 54.1062C188.365 66.1912 198.954 78.9504 202.068 82.5726C202.302 82.8434 202.642 82.9994 203 82.9994C203.358 82.9994 203.698 82.8434 203.931 82.5726C207.044 78.951 217.633 66.1924 223.157 54.1062C224.44 51.3 225.089 48.2666 225.089 45.0896C225.088 32.9094 215.179 23 202.999 23ZM202.999 56.563C196.673 56.563 191.525 51.4155 191.525 45.089C191.525 38.7619 196.673 33.6144 202.999 33.6144C209.326 33.6144 214.473 38.7619 214.473 45.089C214.474 51.4155 209.326 56.563 202.999 56.563Z" fill="white"/>
<path d="M317.999 83.9C306.317 83.9 296.811 93.4065 296.811 105.09C296.811 108.141 297.435 111.047 298.661 113.732C304.126 125.69 314.636 138.364 317.75 141.985C317.812 142.057 317.903 142.099 318 142.099C318.096 142.099 318.187 142.058 318.249 141.986C321.361 138.365 331.873 125.691 337.339 113.732C338.566 111.047 339.189 108.142 339.189 105.09L317.999 83.9ZM317.999 83.9C329.681 83.9 339.188 93.4064 339.189 105.09L317.999 83.9ZM317.999 117.463C311.176 117.463 305.625 111.913 305.625 105.089C305.625 98.2648 311.175 92.7144 317.999 92.7144C324.823 92.7144 330.373 98.2648 330.373 105.089L317.999 117.463ZM317.999 117.463C324.823 117.463 330.374 111.913 330.373 105.089L317.999 117.463Z" stroke="white" stroke-width="1.8"/>
<path d="M210.999 263.9C199.317 263.9 189.811 273.406 189.811 285.09C189.811 288.141 190.435 291.047 191.661 293.732C197.126 305.69 207.636 318.364 210.75 321.985C210.812 322.057 210.903 322.099 211 322.099C211.096 322.099 211.187 322.058 211.249 321.986C214.361 318.365 224.873 305.691 230.339 293.732C231.566 291.047 232.189 288.142 232.189 285.09L210.999 263.9ZM210.999 263.9C222.681 263.9 232.188 273.406 232.189 285.09L210.999 263.9ZM210.999 297.463C204.176 297.463 198.625 291.913 198.625 285.089C198.625 278.265 204.175 272.714 210.999 272.714C217.823 272.714 223.373 278.265 223.373 285.089L210.999 297.463ZM210.999 297.463C217.823 297.463 223.374 291.913 223.373 285.089L210.999 297.463Z" stroke="white" stroke-width="1.8"/>
<path d="M29.9991 0.9C18.3172 0.9 8.81071 10.4065 8.81071 22.0896C8.81071 25.1415 9.43482 28.047 10.6612 30.7323C16.1255 42.6895 26.6362 55.3636 29.75 58.9851C29.8123 59.0574 29.9035 59.0994 29.9997 59.0994C30.0956 59.0994 30.1866 59.0576 30.2489 58.9857C33.361 55.3653 43.8725 42.6911 49.3389 30.732C50.5657 28.0469 51.1893 25.1416 51.1893 22.0897L29.9991 0.9ZM29.9991 0.9C41.6815 0.9 51.188 10.4064 51.1893 22.0896L29.9991 0.9ZM29.9991 34.463C23.1755 34.463 17.6251 28.9125 17.6251 22.089C17.6251 15.2648 23.1755 9.71435 29.9991 9.71435C36.8226 9.71435 42.373 15.2648 42.3731 22.0889L29.9991 34.463ZM29.9991 34.463C36.8231 34.463 42.3737 28.9126 42.3731 22.089L29.9991 34.463Z" stroke="white" stroke-width="1.8"/>
<path d="M422.999 212.9C411.317 212.9 401.811 222.406 401.811 234.09C401.811 237.141 402.435 240.047 403.661 242.732C409.126 254.69 419.636 267.364 422.75 270.985C422.812 271.057 422.903 271.099 423 271.099C423.096 271.099 423.187 271.058 423.249 270.986C426.361 267.365 436.873 254.691 442.339 242.732C443.566 240.047 444.189 237.142 444.189 234.09L422.999 212.9ZM422.999 212.9C434.681 212.9 444.188 222.406 444.189 234.09L422.999 212.9ZM422.999 246.463C416.176 246.463 410.625 240.913 410.625 234.089C410.625 227.265 416.175 221.714 422.999 221.714C429.823 221.714 435.373 227.265 435.373 234.089L422.999 246.463ZM422.999 246.463C429.823 246.463 435.374 240.913 435.373 234.089L422.999 246.463Z" stroke="white" stroke-width="1.8"/>
</svg>
